<svg xmlns="http://www.w3.org/2000/svg" height="511pt" version="1.1" viewBox="1 0 511.99998 511" width="511pt">
<g id="surface1">
<path d="M 256.066406 13.492188 C 390.203125 13.492188 498.875 122.167969 498.875 256.433594 C 498.875 390.703125 390.203125 499.242188 256.066406 499.242188 C 121.929688 499.242188 13.125 390.570312 13.125 256.433594 C 13.125 122.300781 121.929688 13.492188 256.066406 13.492188 Z M 346.363281 253.285156 C 346.363281 199.996094 303.183594 156.816406 249.898438 156.683594 C 196.609375 156.554688 153.429688 199.867188 153.296875 253.152344 C 153.167969 306.441406 196.476562 349.621094 249.765625 349.753906 C 303.183594 349.882812 346.363281 306.570312 346.363281 253.285156 Z M 346.363281 253.285156 " style=" stroke:none;fill-rule:nonzero;fill:rgb(46.666667%,96.862745%,66.666667%);fill-opacity:1;" />
<path d="M 249.898438 156.816406 C 303.183594 156.816406 346.363281 199.996094 346.363281 253.414062 C 346.363281 306.835938 303.183594 349.882812 249.765625 349.882812 C 196.476562 349.882812 153.296875 306.703125 153.296875 253.414062 C 153.296875 199.996094 196.476562 156.816406 249.898438 156.816406 Z M 277.722656 253.285156 C 277.722656 237.929688 265.253906 225.460938 249.898438 225.460938 C 234.542969 225.460938 222.074219 237.929688 222.074219 253.285156 C 222.074219 268.640625 234.542969 281.109375 249.898438 281.109375 C 265.253906 281.242188 277.722656 268.773438 277.722656 253.285156 Z M 277.722656 253.285156 " style=" stroke:none;fill-rule:nonzero;fill:rgb(87.058824%,100%,90.980392%);fill-opacity:1;" />
<path d="M 256.066406 0.5 C 114.84375 0.5 0 115.210938 0 256.433594 C 0 397.660156 114.84375 512.371094 256.066406 512.371094 C 397.289062 512.371094 512 397.527344 512 256.433594 C 512 115.34375 397.289062 0.5 256.066406 0.5 Z M 256.066406 486.25 C 129.410156 486.25 26.25 383.21875 26.25 256.433594 C 26.25 129.648438 129.410156 26.617188 256.066406 26.617188 C 382.71875 26.617188 485.75 129.78125 485.75 256.433594 C 485.75 383.089844 382.71875 486.117188 256.066406 486.25 Z M 256.066406 486.25 " style=" stroke:none;fill-rule:nonzero;fill:rgb(14.117647%,70.196078%,38.039216%);fill-opacity:1;" />
<path d="M 359.488281 253.285156 C 359.488281 192.777344 310.402344 143.691406 249.898438 143.691406 C 189.390625 143.691406 140.304688 192.777344 140.304688 253.285156 C 140.304688 313.789062 189.390625 362.875 249.898438 362.875 C 310.402344 362.875 359.359375 313.789062 359.488281 253.285156 Z M 166.421875 253.285156 C 166.421875 207.214844 203.699219 169.941406 249.765625 169.941406 C 295.835938 169.941406 333.109375 207.214844 333.109375 253.285156 C 333.109375 299.351562 295.835938 336.625 249.765625 336.625 C 203.828125 336.625 166.554688 299.351562 166.421875 253.285156 Z M 166.421875 253.285156 " style=" stroke:none;fill-rule:nonzero;fill:rgb(14.117647%,70.196078%,38.039216%);fill-opacity:1;" />
<path d="M 252.914062 101.429688 C 260.132812 101.429688 266.039062 95.523438 266.039062 88.304688 C 266.039062 81.085938 260.136719 75.179688 252.914062 75.179688 C 152.90625 75.179688 71.660156 156.554688 71.660156 256.433594 C 71.660156 263.652344 77.566406 269.558594 84.785156 269.558594 C 92.003906 269.558594 97.910156 263.652344 97.910156 256.433594 C 98.042969 170.859375 167.34375 101.5625 252.914062 101.429688 Z M 252.914062 101.429688 " style=" stroke:none;fill-rule:nonzero;fill:rgb(14.117647%,70.196078%,38.039216%);fill-opacity:1;" />
<path d="M 407.921875 256.433594 C 407.789062 342.007812 338.488281 411.308594 252.914062 411.4375 C 245.699219 411.4375 239.789062 417.34375 239.789062 424.5625 C 239.789062 431.78125 245.695312 437.6875 252.914062 437.6875 C 352.925781 437.6875 434.171875 356.316406 434.171875 256.433594 C 434.171875 249.214844 428.265625 243.308594 421.046875 243.308594 C 413.828125 243.308594 407.921875 249.214844 407.921875 256.433594 Z M 407.921875 256.433594 " style=" stroke:none;fill-rule:nonzero;fill:rgb(14.117647%,70.196078%,38.039216%);fill-opacity:1;" />
<path d="M 290.847656 253.285156 C 290.847656 230.578125 272.472656 212.335938 249.898438 212.335938 C 227.320312 212.335938 208.945312 230.707031 208.945312 253.285156 C 208.945312 275.859375 227.320312 294.234375 249.898438 294.234375 C 272.472656 294.363281 290.847656 275.988281 290.847656 253.285156 Z M 235.066406 253.285156 C 235.066406 245.144531 241.628906 238.585938 249.765625 238.585938 C 257.902344 238.585938 264.464844 245.144531 264.464844 253.285156 C 264.464844 261.421875 257.902344 267.984375 249.765625 267.984375 C 241.628906 268.113281 235.066406 261.421875 235.066406 253.285156 Z M 235.066406 253.285156 " style=" stroke:none;fill-rule:nonzero;fill:rgb(14.117647%,70.196078%,38.039216%);fill-opacity:1;" />
</g>
</svg>